<?xml version="1.0" encoding="UTF-8"?>
<svg id="Layer_1" data-name="Layer 1" xmlns="http://www.w3.org/2000/svg" viewBox="0 0 53.95 54">
  <defs>
    <style>
      .cls-1 {
        fill: #e82426;
      }
    </style>
  </defs>
  <path class="cls-1" d="m16.51,50.76c-.61,0-1.17,0-1.72,0-.51,0-.78-.25-.79-.73-.02-.8-.02-1.6,0-2.41.01-.49.29-.75.78-.77.24,0,.48,0,.7,0,.17-1.04.16-1.02-.67-1.37C6.82,42.08,1.74,36.14.37,27.56-1.26,17.36,2.54,9.27,11.14,3.58,15.47.72,20.37-.42,25.54.14c9.66,1.04,16.36,6.17,20.01,15.13,2.12,5.21,2.06,10.58.3,15.92-.12.35-.31.67.09.99.11.09.12.35.12.53.01.73.02,1.46,0,2.18-.01.65-.23.86-.89.87-.46,0-.92,0-1.41,0v1.46c1.09,0,2.17.04,3.24-.01.7-.03,1.09.22,1.38.86.65,1.46,1.37,2.9,2.08,4.33.11.23.33.44.56.56.76.39,1.54.75,2.32,1.1.41.19.63.45.62.95-.02,1.64,0,3.28-.01,4.93,0,.62-.22.88-.84.82-.74-.07-1.11.12-1.39.89-.57,1.58-2.13,2.45-3.87,2.36-1.49-.08-2.91-1.19-3.4-2.68-.06-.17-.11-.35-.17-.54h-11.23c-.32.59-.55,1.2-.93,1.68-.96,1.22-2.27,1.69-3.78,1.4-1.47-.28-2.47-1.17-2.96-2.59-.11-.32-.19-.53-.62-.53-.45,0-.54.21-.66.56-.54,1.6-2.04,2.66-3.7,2.65-1.69,0-3.18-1.1-3.71-2.72-.05-.14-.09-.28-.15-.46Zm.29-48.34c-.03.08-.05.16-.08.24.39.16.77.41,1.17.48,1.3.23,2.61.4,3.92.6.56.09.77.37.68.94-.1.66-.26,1.32-.33,1.98-.06.52-.29.86-.8.93-1.58.21-2.58,1.13-3.26,2.52-.66,1.34-1.71,2.32-2.99,3.08-.7.42-1.34.94-2.03,1.39-.23.15-.5.27-.76.31-.55.08-1.11.09-1.67.14-1.05.09-2.11.18-3.14.27-.16.9-.11,1.67.7,2.22.21.14.42.33.55.55.16.29.33.63.33.95-.01.97-.08,1.94-.19,2.9-.03.28-.2.66-.41.76-.21.1-.62-.02-.85-.18-.99-.7-1.91-1.5-2.91-2.18-.97-.66-1.73-1.46-2.21-2.52-.06-.14-.17-.26-.27-.41-1.26,3.08-1.15,10.75.21,12.85-.1-1.02.44-1.5,1.24-1.8.45-.17.89-.4,1.3-.65,1.18-.73,2.42-1.13,3.81-.77.28.07.6.14.8.32,1.36,1.22,2.71,2.46,4.05,3.7.62.57.51,1.06-.28,1.38-.8.32-1.59.63-2.4.92-.32.11-.42.29-.42.61,0,1.55-.04,3.1-.05,4.65,0,.42-.16.71-.52.9-.39.21-.76.44-1.2.69,2.02,1.78,4.22,3.13,6.72,4.09v-8.54c-.21,0-.4,0-.58,0-.73,0-.94-.21-.95-.92,0-.71,0-1.42,0-2.13,0-.64.25-.87.89-.88.72,0,1.45,0,2.18,0,.21-.82.42-1.59.61-2.36.14-.55.48-.92,1-1.11.23-.08.46-.18.69-.2.46-.06.66-.3.74-.74.12-.6.29-1.19.46-1.78.2-.69.66-1.17,1.35-1.28,1.51-.23,3.03-.41,4.55-.57.83-.09,1.44.3,1.83,1.03.33.61.63,1.23.96,1.83.08.15.22.34.36.37.74.18,1.48.31,2.22.46.38-.59.72-1.15,1.09-1.68.48-.7,1.14-.99,1.98-.82.5.1,1,.18,1.54.27-.07-.64-.2-1.2-.16-1.75.08-1.03-.36-1.66-1.28-2-.27-.1-.6-.18-.87-.12-.74.16-1.46.43-2.21.59-.28.06-.64.05-.9-.06-1.61-.68-3.2-1.41-4.81-2.09-.49-.21-.72-.52-.81-1.02-.27-1.58-.6-3.15-.85-4.73-.05-.31.04-.73.23-.97.66-.83,1.38-1.62,2.11-2.39.18-.19.51-.34.77-.35,1.51-.05,3.02-.05,4.53-.07.39,0,.67.14.87.48.34.58.71,1.14,1.09,1.69.1.15.29.3.46.33,1.04.2,2.09.38,3.13.56.49.08,1.03.28,1.47.16,1.14-.32,2.23-.79,3.47-1.25-.87-1.19-1.69-2.3-2.52-3.43-.68.52-1.29.95-1.86,1.42-.35.28-.67.31-1.08.15-1.54-.6-3.11-1.14-4.64-1.78-.68-.28-1.28-.38-1.95,0-.3.17-.67.23-1.01.32-1.32.31-2.59.27-3.75-.54-.44-.31-.55-.66-.29-1.15.51-.93.96-1.89,1.5-2.81.14-.24.5-.46.78-.49.78-.09,1.57-.12,2.35-.09.72.03,1.21-.32,1.75-.8-5.05-1.99-10.08-2.2-15.18-.62Zm25.49,44.43v-11.05h-25.36v11.17c.59-.14,1.14-.2,1.62-.41,1.07-.49,2.19-.69,3.23-.14.86.45,1.7.44,2.59.44.67,0,1.34.02,2.01,0,.23,0,.48-.08.68-.19,1.31-.72,2.62-.72,3.95-.04.25.13.55.22.83.22,3.04.02,6.08,0,9.12,0h1.32Zm1-33.37c-1.21.45-2.35.9-3.51,1.29-.35.12-.77.15-1.14.1-1.49-.22-2.97-.5-4.46-.75-.45-.07-.8-.24-1.03-.66-.28-.5-.59-1-.94-1.45-.13-.17-.4-.32-.61-.33-.61-.04-1.24.06-1.84-.02-1.41-.19-2.5.24-3.24,1.49-.08.14-.26.23-.32.38-.11.24-.26.51-.22.74.21,1.3.46,2.6.74,3.89.04.21.24.45.44.54,1.2.56,2.42,1.05,3.62,1.62.55.26,1.04.3,1.64.11,2.41-.74,2.42-.72,4.55.63.02,0,.04.02.05.03.17.27.43.52.48.81.15.92.2,1.85.31,2.78.1.84.13.89.97,1,1.02.13,1.68.64,2.08,1.61.58,1.39,1.28,2.73,1.85,4.12.26.63.72.36,1.11.43.39.07.44-.21.54-.48,1.41-3.77,1.75-7.64,1.07-11.6-.37-2.17-1.06-4.25-2.12-6.27ZM7.59,20.77c.13-1.01.38-1.94-.61-2.59-.72-.48-.95-1.19-.86-2.03.03-.31-.02-.63-.04-.95-.06-.99.1-1.17,1.09-1.25,1.11-.09,2.23-.21,3.34-.25,1.13-.04,2.07-.41,3.04-1.03,1.72-1.11,3.13-2.44,4.05-4.27.51-1.01,1.28-1.55,2.37-1.8.98-.22,1.09-.48,1-1.59-.61-.09-1.23-.2-1.86-.28-1.37-.17-2.75-.27-3.7-1.5-.09-.11-.45-.11-.62-.04-5.08,2.23-8.82,5.85-11.31,10.81-.55,1.1-.69,2,.13,2.98.36.44.52,1.07.94,1.44.93.82,1.96,1.53,3.04,2.35Zm13.85,6.91c.93.07,1.38.68,1.78,1.39.45.8.95,1.56,1.39,2.36.18.31.38.43.75.42,3.62-.02,7.24,0,10.86-.01.15,0,.31-.02.53-.04-.38-.64-.75-1.2-1.07-1.78-.18-.32-.41-.47-.78-.54-1.92-.37-3.83-.77-5.75-1.14-.47-.09-.75-.32-.96-.75-.32-.69-.67-1.38-1.06-2.03-.12-.2-.43-.42-.64-.4-1.39.14-2.77.32-4.16.53-.18.03-.4.22-.46.39-.18.5-.29,1.03-.44,1.61Zm-9.34,3.79c-1.01-.94-1.98-1.83-2.95-2.73-.45-.41-1.7-.62-2.24-.35-.9.44-1.8.89-2.7,1.36-.16.08-.35.26-.38.42-.16.86-.28,1.73-.38,2.6-.02.2.06.45.17.63.77,1.27,1.53,2.56,2.37,3.78.51.74,1.16,1.38,1.75,2.07.37-.21.65-.42.96-.54.42-.17.5-.45.49-.87-.02-1.49.02-2.99,0-4.48,0-.54.2-.87.72-1.05.72-.25,1.42-.54,2.19-.83Zm32.55,1.74H15.4v1.18h29.24v-1.18ZM27.01,7.48c.24.07.41.14.59.17,1.18.25,2.25-.15,3.28-.63.45-.21.83-.21,1.28-.04,1.66.65,3.33,1.28,5.01,1.89.19.07.47.1.61.01.48-.31.92-.68,1.39-1.05-1.32-1.31-2.78-2.34-4.26-3.35-1.02-.7-1.85-.82-2.75.12-.45.47-1.04.59-1.69.57-.67-.02-1.34.04-2.01.09-.15.01-.35.13-.43.26-.35.61-.67,1.24-1.04,1.95Zm25.54,41.9c.02-.07.04-.1.04-.14,0-.8-.09-1.62.03-2.4.19-1.26-.3-1.9-1.47-2.33-.82-.3-1.59-.56-2.47-.53-1.42.05-2.84.01-4.25.01-.22,0-.43,0-.67,0v5.41q.5.01.65-.47c.54-1.66,2.03-2.76,3.75-2.75,1.7,0,3.23,1.13,3.72,2.78.12.39.27.54.67.43Zm-23.48-1.89c-1.42,0-2.57,1.13-2.57,2.54,0,1.41,1.15,2.54,2.57,2.54,1.4,0,2.52-1.11,2.54-2.51.02-1.41-1.12-2.56-2.54-2.57Zm-8.67,5.08c1.42,0,2.53-1.14,2.52-2.57-.01-1.39-1.13-2.5-2.53-2.5-1.44,0-2.55,1.1-2.55,2.54,0,1.44,1.12,2.54,2.56,2.53Zm25.19-2.49c0,1.41,1.14,2.58,2.54,2.58,1.37,0,2.54-1.15,2.55-2.52.02-1.41-1.11-2.58-2.52-2.61-1.39-.03-2.57,1.13-2.57,2.54Zm-4.21-18.24c-.7-1.52-1.35-2.96-2.02-4.38-.07-.14-.26-.29-.42-.32-1.42-.29-2.85-.56-4.28-.8-.18-.03-.47.05-.58.18-.3.37-.53.79-.82,1.24.86.18,1.65.3,2.41.52.32.09.67.33.86.6.58.84,1.07,1.74,1.62,2.61.1.16.32.33.49.34.87.03,1.75.02,2.74.02Zm7.61,10.75c-.63-1.31-1.22-2.55-1.83-3.78-.05-.09-.2-.19-.3-.19-1.04-.01-2.07,0-3.13,0v3.98h5.25Zm-6.7,5.69h-9.69c.12.4.23.75.35,1.11h9.35v-1.11Zm-23.82-16.48h4.77c-.51-.84-.95-1.64-1.46-2.39-.12-.17-.46-.3-.67-.27-.58.09-1.16.26-1.72.44-.16.05-.36.21-.41.36-.19.6-.33,1.21-.5,1.86Zm-1.63,16.49h-1.46v1.11h1.1c.12-.37.23-.71.35-1.11Zm7.44,1.11c1,.07,1.01.06,1.17-1.11h-1.53c.13.4.24.74.36,1.11Z"/>
  <path class="cls-1" d="m24.54,26.54c.41.04.65.26.64.68,0,.43-.27.66-.68.65-.4-.01-.67-.27-.66-.69,0-.41.27-.64.7-.65Z"/>
  <path class="cls-1" d="m28.61,30.01c.02-.42.24-.67.66-.67.42,0,.68.25.68.65,0,.41-.26.68-.66.68-.4,0-.65-.24-.68-.66Z"/>
  <path class="cls-1" d="m38.41,28.02c-.05.43-.26.68-.69.67-.43,0-.67-.27-.66-.67,0-.4.26-.66.68-.66.42,0,.63.27.67.66Z"/>
  <path class="cls-1" d="m20.92,30.44c-.02.42-.27.67-.67.66-.4,0-.67-.26-.67-.67,0-.42.27-.67.68-.67.4,0,.65.24.66.68Z"/>
</svg>