<?xml version="1.0" encoding="UTF-8"?>
<svg id="Layer_1" data-name="Layer 1" xmlns="http://www.w3.org/2000/svg" viewBox="0 0 54 51.13">
  <defs>
    <style>
      .cls-1 {
        fill: #e82426;
      }
    </style>
  </defs>
  <path class="cls-1" d="m54,31.68c-.22.19-.42.42-.67.56-1.8,1.05-3.61,2.09-5.42,3.13-.79.45-1.14.36-1.59-.41-.18-.32-.37-.63-.57-.97-1.55.89-3.07,1.76-4.62,2.65.69,1.15.81,2.33.17,3.5-.65,1.18-1.71,1.71-3.08,1.76,0,.97-.3,1.83-1,2.52-.69.67-1.52.97-2.51.96,0,1.07-.35,1.98-1.15,2.68-.8.7-1.75.93-2.83.76-.06.16-.11.3-.17.45-.68,1.86-2.92,2.47-4.44,1.19-.24-.2-.44-.25-.75-.18-1.36.3-2.72-.49-3.19-1.8-.05-.13-.08-.26-.14-.43-1.04.15-1.99-.06-2.81-.74-.82-.68-1.17-1.59-1.22-2.69-.96-.04-1.83-.31-2.51-1.01-.67-.68-.98-1.52-.98-2.46-2.79-.59-3.73-1.78-3.41-4.29-1.11-.65-2.22-1.3-3.36-1.97-.09.13-.17.24-.25.35-.31.42-.7.55-1.15.3-2-1.14-3.99-2.29-5.97-3.44-.16-.09-.27-.27-.4-.4,0-.21,0-.42,0-.63.88-1.49,1.76-2.98,2.63-4.47,1.7-2.93,3.39-5.86,5.08-8.78.49-.86.83-.94,1.7-.44,1.73,1,3.47,1.99,5.2,2.99.94.54,1.01.78.51,1.76-.02.04-.02.1-.05.21.54,0,1.06,0,1.58,0,.25,0,.49-.02.74,0,1.81.14,3.5-.18,5.06-1.19.92-.6,1.98-.58,2.9.03,1,.67,1.9.79,2.95.09.69-.46,1.51-.33,2.29-.06,1.92.65,3.85,1.29,5.78,1.93,1.3.43,1.64.41,2.96-.23-.21-.36-.42-.71-.61-1.07-.29-.55-.18-.99.35-1.29,1.91-1.11,3.83-2.21,5.74-3.31.61-.35,1.01-.21,1.41.48,2.48,4.28,4.95,8.56,7.43,12.83.1.18.23.34.34.52v.63Zm-29.09-8.8c-.59-.46-1.14-.57-1.76-.23-.52.29-1.07.53-1.59.82-.65.36-1.32.52-2.07.51-1.69,0-3.37.03-5.06.04-.32,0-.5.1-.66.39-1.66,2.89-3.33,5.77-5,8.65-.06.1-.09.21-.15.34,1.14.67,2.26,1.32,3.5,2.04.11-.16.2-.34.33-.47.88-.89,1.74-1.79,2.66-2.63,1.01-.93,2.21-1.13,3.48-.62,1.26.51,1.94,1.51,2.07,2.87.01.12.03.23.04.35,2.19.2,3.06,1.07,3.52,3.52.97.02,1.84.33,2.55,1.04.06.06.19.09.28.07.5-.12,1-.26,1.51-.39.19-2.12,1.09-3.01,3.51-3.45.04-1.4.66-2.46,1.94-3.16-1.43-1.07-2.83-2.07-4.17-3.14-.63-.51-1.31-.67-2.09-.71-.64-.03-1.07.23-1.38.76-.4.68-.81,1.35-1.23,2.02-.41.65-1.03.95-1.79.88-.7-.06-1.39-.17-2.09-.28-1.16-.18-1.85-1.22-1.55-2.36.32-1.22.68-2.43,1.01-3.64.25-.92.81-1.57,1.67-1.99.82-.39,1.64-.8,2.51-1.23Zm15.32,1.54c-.26.09-.48.15-.68.25-1.21.57-2.41.55-3.67.09-1.92-.7-3.88-1.32-5.84-1.93-.38-.12-.9-.1-1.25.06-1.89.88-3.76,1.8-5.61,2.76-.33.17-.66.55-.79.9-.38,1.09-.65,2.21-.96,3.32-.04.16-.04.33-.05.52.65.08,1.25.14,1.84.24.32.05.51-.05.68-.34.38-.67.79-1.33,1.21-1.97.5-.76,1.2-1.25,2.12-1.3,1.26-.07,2.46.06,3.51.92,3.03,2.46,6.45,4.44,9.12,7.35.02.02.06.03.11.05,1.63-.94,3.27-1.88,4.94-2.84-1.57-2.71-3.11-5.38-4.68-8.09ZM6.48,33.63c2.33-4.02,4.63-8,6.94-12.01-1.51-.87-2.97-1.71-4.47-2.57-2.33,4.02-4.62,7.99-6.94,12.01,1.5.86,2.97,1.71,4.47,2.58Zm34.1-12.01c2.32,4.01,4.62,7.99,6.95,12.01,1.51-.87,2.98-1.72,4.47-2.58-2.33-4.03-4.64-8.01-6.95-12-1.53.88-2.98,1.72-4.47,2.58Zm-.5,16.9c-.14-.33-.21-.73-.44-.98-1.04-1.1-2.1-2.17-3.2-3.2-.61-.57-1.57-.47-2.15.11-.56.56-.67,1.53-.13,2.11,1.05,1.13,2.15,2.22,3.28,3.27.47.44,1.1.45,1.68.16.59-.29.88-.78.97-1.48Zm-19.28-1.92c-.34.15-.75.23-1.01.48-1.07,1.01-2.12,2.04-3.13,3.11-.59.62-.52,1.59.06,2.19.58.59,1.58.68,2.19.1,1.09-1.02,2.14-2.07,3.16-3.15.47-.5.52-1.13.21-1.76-.29-.59-.79-.87-1.48-.96Zm-6.24,2.78c.18-.08.58-.15.82-.38,1.09-1.04,2.17-2.1,3.2-3.19.57-.6.49-1.56-.09-2.15-.59-.6-1.58-.68-2.19-.1-1.08,1.02-2.14,2.08-3.16,3.16-.46.48-.51,1.1-.23,1.71.28.61.79.91,1.65.95Zm11.53,2.49c-.13-.75-.42-1.27-1.04-1.54-.64-.29-1.28-.22-1.8.29-.98.95-1.94,1.92-2.91,2.89-.72.72-.75,1.74-.09,2.39.66.65,1.68.61,2.4-.1.92-.92,1.86-1.81,2.74-2.76.3-.32.47-.77.7-1.17Zm10.43.01c-.07-.17-.14-.57-.37-.82-1.04-1.09-2.1-2.17-3.19-3.2-.6-.57-1.57-.48-2.15.09-.57.56-.68,1.56-.13,2.15,1.04,1.11,2.13,2.19,3.24,3.23.48.45,1.12.46,1.72.15.56-.29.83-.78.88-1.6Zm-8.84.57c1.8.61,2.4,1.59,2.15,3.56-.01.1-.02.22.03.29.42.53.91.92,1.64.86.66-.06,1.12-.39,1.37-.99.27-.64.14-1.25-.34-1.75-.98-1-1.98-1.99-2.97-2.97-.38-.38-.85-.53-1.39-.45-.39.05-.62.17-.5.63.06.25.01.52.01.83Zm-2.95,6.28c.35-.16.61-.21.78-.37.85-.81,1.69-1.63,2.49-2.49.38-.4.3-1.05-.09-1.43-.36-.36-1.01-.44-1.39-.09-.87.81-1.71,1.66-2.53,2.52-.3.31-.37.76-.11,1.12.22.3.57.5.86.73Zm4.02-1.04c-.48.49-.96.99-1.44,1.47.42.35.98.35,1.39-.05.41-.4.43-.95.05-1.42Z"/>
  <path class="cls-1" d="m26.99,19.77c-5.4,0-9.88-4.45-9.89-9.83C17.09,4.46,21.54,0,26.99,0c5.47,0,9.91,4.44,9.91,9.91,0,5.41-4.46,9.85-9.92,9.86Zm-8.18-9.89c.04,4.57,3.75,8.24,8.27,8.18,4.52-.06,8.14-3.73,8.11-8.23-.03-4.52-3.75-8.17-8.26-8.13-4.48.05-8.16,3.75-8.12,8.17Z"/>
  <path class="cls-1" d="m25.91,10.69c1.37-1.12,2.7-2.21,4.03-3.29.07-.06.13-.11.2-.17.43-.32.93-.29,1.23.07.32.37.27.89-.16,1.25-.66.56-1.33,1.09-1.99,1.64-.92.76-1.85,1.52-2.77,2.27-.6.48-1.05.42-1.51-.2-.54-.73-1.08-1.47-1.61-2.21-.35-.49-.3-1,.11-1.3.4-.29.91-.18,1.27.31.4.53.78,1.07,1.2,1.64Z"/>
</svg>