<svg id="Layer_1" data-name="Layer 1" xmlns="http://www.w3.org/2000/svg" viewBox="0 0 994.37 1200"><defs><style>.cls-1{fill:#ec1729;}</style></defs><path class="cls-1" d="M357.65,191.31c4.64-4,7-5.92,11.75-9.8a37.44,37.44,0,0,0,5.81-5.93c4.33-6.3,7.44-13.1,7.61-20.26a149.06,149.06,0,0,0-.81-21.38c-.78-6.36-1.77-12.73-6.46-18.58-19.48,13.12-20.27,47.5-19.36,63.57C356.18,183,357.13,186.8,357.65,191.31Z" transform="translate(-102.81)"/><path class="cls-1" d="M558,126c-.77-13.38,0-34.52-16.82-39.82-15,22.32-17.14,46.82-22.55,70.74,13.36-.82,26.07-1.21,39.08-1.27C557.92,145.37,558.59,135.52,558,126Z" transform="translate(-102.81)"/><path class="cls-1" d="M550.17,961.56c-15,20.14-21.79,43.52-32.42,65.61,13.13,2.21,25.7,3.94,38.63,5.31,1.3-10.17,3-19.89,3.42-29.45C560.46,989.64,562.88,969,550.17,961.56Z" transform="translate(-102.81)"/><path class="cls-1" d="M602.18,0C295,0,103,121.4,103,443.56c0,266.3-24,751.73,475.18,756.39,528.15,4.94,503.55-392,518.38-723.7C1111,154.08,875.77,0,602.18,0ZM923.56,287.55c24.63.45,65,13.25,73.08,39.94,1.25,4.08-2.76,8.63-7,7.31-10.87-3.36-19.45-11.42-29.23-17-12-6.86-25.32-10.56-38.69-13.86C912.63,301.71,914.11,287.37,923.56,287.55ZM763,174.89c-2.71-2.67-2.27-4.55,1.09-5.71,5.16-1.56,8.64-.14,9.9-5.18,3.8-15.14,7.07-31.12,10.62-46.13a60.83,60.83,0,0,0,.9-6.34c.68-6,5.16-8.19,13.33-6.47,24.47,5.15,33.34,23,31.31,36.36-1.71,11.25-5.68,22.61-10.5,39.09,11.54,3.87,17.28,5.93,28.7,10.31,1,.1,2.59-.19,2.89-1,6.26-11.52,12.48-23.41,18.05-34.84,3-6.1-2.26-21.56,10.76-18.36,22.61,5.58,30.38,27.2,26.63,41.86-3,11.65-9.8,21.71-16,31.34-2.21,3.46,4.49,8.1,2.17,10.46-1.2,1.22-4.31,1.35-6.65.88s-3.4.27-4.39,1.64c-9.81,14.38-19.55,29.12-29.52,43.48-4.29,6-11.28,17.9-18.68,18.48-10.75.84-17.41-5.24-16.16-15.13,3.61-24.39,16.54-45.22,26.21-65.81-11.31-4.35-17-6.39-28.45-10.23-3.39,7.62-5.07,11.43-8.41,19.06-4.36,9.06-18.24,48.06-30.62,48.6-9.38.4-17.81-5.5-18.28-13.94-.18-21.84,5.09-42.74,10.23-63.71.4-1.5.59-2.25,1-3.75C767,177.9,765,176.53,763,174.89Zm-130-90c1.27-3.53,7.53-5.67,10.77-5.45,15.47,1,31,2.7,46.33,4.5s31,4.37,46.16,6.71c5.65.87,10.11,3.09,13,6.8.77,1.58.46,6.6.18,8-.17.81-3.49,1-5.23.62-16.79-2.5-25.2-3.51-42-5.07,0,7.28.24,11.67-.63,18.65-1.7,13.67-4.33,28.28-7,42.33-3.93,21.07-9.43,42.85-12.33,63.08-2,13.66-5.75,18.66-12.56,19-7.6.33-19.83-2.31-18.94-13,1.12-13.37,2.06-27.4,3.26-41.11,2.42-27.41,3.74-52.46,10.94-79.56,1.13-4.34,2.61-8.64,4.12-12.94C665.65,97,629.57,96,633,84.85Zm-146.13,78c5.36-2.32,5.81-3.07,6.21-7.32,2.49-22.7,10.27-45,21.13-66,10-19.33,44.87-16.68,63.69-8.7,30.1,17.48,27,49.55,24,75-.71,4.42,5.82,5.48,5.32,8.68s-7.11,4-7.8,8.44c-2.06,13.26-3.39,27.3-6.14,40.08-1.28,5.94-3.15,19-9.29,22.18s-21.63,7.48-24-1.49c-3.67-13.8-2.77-28-3-41.95-.11-6.57.25-13.59.21-20.8-13.34.66-26.67,1.7-40.28,3.17-.69,8.42-1.38,17.79-2,26.95-.62,8.84-.77,18.54-1.62,27-.6,5.93-8.25,7.54-13.45,7.67-4.06.1-7.19-.9-7.62-5.29-2.2-22.72-1.57-37.83-.81-52.49,0-2-.44-3-3.09-3.46C483.26,173.19,480.85,165.47,486.91,162.85ZM262.12,148.21c22.88-15.73,46.79-4.63,57.2,9.13,7.41,9.79,11.61,6.65,16.47-20.75s61.22-56.5,79-22.38c7.65,14.63,3.7,33.63-8.1,53.94,23.07-1.26,39.86,8.79,46.61,27.08,9.93,27-5.41,59.17-31.55,73-10.14,5.2-44.92,6.42-21.12-7.8,6.57-3.54,9.45-9.27,11-15.77,3.73-14.92,2.07-29.32-3.12-42.55-1.91-4.85-5.32-9.86-8.35-14.33-1.62-2.38-4.29-3.1-7.73-.93-11.52,6-20.6,12.7-32.37,17.42,3.12,17.09,4.75,25.62,8.19,42.62,2.91,12.49.09,19.59-15.69,23.19-23.57,5.39-37.78-13.17-45.66-28.52-13.6-26.49-22.76-62.71-45.88-84.27C256.85,154.33,257.22,151.69,262.12,148.21Zm4.78,155.65c-13.25,3.17-26.36,6.94-38.34,13.57-10,5.51-18.72,13.83-29.7,17.31-4.11,1.3-8.57-2.8-7.31-7,8-26.68,48-39.79,72.8-40.15C273.59,287.41,276.17,301.64,266.9,303.86Zm-90.63-47.74c5.58-21.13,38.38-25.39,56.19-22,11.38,2.19,8.19,19.21-3.21,17.64a51.29,51.29,0,0,0-22,1.52c-8.33,2.56-15.2,8.3-23.67,10.47C179.61,264.82,175.26,260,176.27,256.12ZM192,810.48c11.18-31.38,59.87-35.07,83.62-17.93,7,5,3.37,18.57-6.16,15.19-13.57-4.81-28-6.47-41.7-1.84-9.45,3.19-17.33,9.4-26.24,13.72C195.68,822.42,190,816.11,192,810.48Zm27.78,98.93c-3.57,4.21-12.38,3.51-12.76-3.11-1.43-25.41,21.7-47.67,42.44-58.65,17.86-9.46,54.39-21,70.69-3.58,3.09,3.31,1.75,9.62-2.49,11.31-8.77,3.49-18.08.9-27.38,1.88a80.39,80.39,0,0,0-30.78,9.83C240.92,877.54,232.75,894,219.74,909.41Zm99.43,7.81c-12.37,5.64-23.85,9.23-33.39,19.64A57.05,57.05,0,0,0,274.68,955c-2.17,5.7-3.05,11.88-6.87,16.75a7.47,7.47,0,0,1-12.69-1c-8.39-15.07,4.18-36.23,14.25-47.59,11.54-13,29.65-23.58,47.5-21.1C323.72,903,325.48,914.35,319.17,917.22Zm133.39,54.07a37.29,37.29,0,0,1-9.44,19.29c-9.17,10.18-30.06-1.17-26.72-12.86,3.27-11.41,8.69-21,5.81-32.41-17.77,1-29.14,26.22-22.33,40.12,6.17,12.6,19.77,22,28.52,32.72,12.27,15.4,14.09,34.48,3,46.82-26.69,26.27-70.51,22-96.51-2.93-10.78-11.14-14.33-22.82-8.4-34,9.27-17.54,20-32.82,44.27-11.78,4.69,4.09,4.17,5.65.29,9.24s-13.38,30.52-5.5,33.3c13.87,1.07,25.26-20.17,26.53-28.69,2.88-19.29-16.59-33.18-25.72-48.13-10.85-17.77-8.17-34.59,4.79-46.49,13.44-12.32,34.34-15.85,51.3-9.58C445.31,934.33,455.22,954.14,452.56,971.29Zm145.77,80.43c-2,13.29-3.32,27.44-6.6,40.11-1.54,5.92-3.9,19-11.86,22s-28.4,5.65-30.24-3.56c-2.83-14.15.27-28.19,1.74-42,.69-6.53,1.92-13.47,2.72-20.62-14-.92-27.88-2.27-42.09-4.14-2.74,8-5.83,16.92-9,25.58-3,8.36-6,17.81-9.4,25.49-2.45,5.48-12.21,4.63-18.48,2.9-4.89-1.35-8.2-3.49-7.08-7.75,5.79-22.05,11.69-36.11,17.12-49.77.67-1.85.52-3-1.95-4.28-4.56-2.78-4.22-10.83,2.37-11.38,5.84-.49,6.48-1.12,8.12-5.06,9-20.93,21.68-40.33,34.46-58.75,11.78-17,37.12-9.81,51.77-1.08,23.25,18.66,23,49.73,20.59,75.2-.62,4.43,6,5.31,5.66,8.52S599,1047.29,598.33,1051.72Zm148.87,46.55c-14.24,5.7-31.78,8.59-47.09,10.85a294,294,0,0,1-33,3.24c-19,.64-18.44-28.91-18.06-37.27,1.55-40.57.78-72.66-7.71-112.36-1.16-3.52-.15-5.53,3.38-7.79,10.65-5.94,27.75-2.84,35.08,6.69,20.37,29.87,8.9,108.82,7.57,120.73,18.19-3.55,29.77-4.2,45.59-7.2C739.65,1073.89,756.27,1094.64,747.2,1098.27Zm71.63-16.08c-8.92,4.3-24.8,7.5-27.89-2.69-3.89-12.8-8.22-26.23-12.1-39.41-7.77-26.39-15.26-50.31-19.27-78-.66-4.42-1.06-8.92-1.46-13.42-2.84.85-31.56,10.13-32-1.44,0-3.7,4.16-7.29,6.66-7.93,12-3.05,24-6.43,35.63-10.4s23.69-8.3,34.83-13.35c4.16-1.89,8.2-2.2,12.09-.55,1.35.92,3.87,5.26,4.42,6.53.33.76-1.8,2.58-3.17,3.16-12.7,6.35-19.14,9.32-32.18,14.85,3.23,6.49,5.39,10.28,7.89,16.87,4.91,12.92,9.5,27,13.76,40.63,6.38,20.46,11.36,42.59,18,61.71C828.6,1071.7,826.81,1078.34,818.83,1082.19ZM793.32,813.11c3.61,4.1,5.58,8.37,5.58,12.77,0,15.2-22.84,34.14-59.76,49.29s-87.93,26.49-144.27,26.49-107.36-11.35-144.28-26.49-59.76-34.09-59.76-49.29c0-4.12,1.73-8.13,4.91-12a405.65,405.65,0,0,1-86.07-68.5c-65.75-68.72-108.82-161.14-116.48-264a73.3,73.3,0,0,1-5.62-27.89c0-46.27,44.66-88.08,125.76-117.75,75.22-27.52,174.85-42.67,280.53-42.67s205.32,15.15,280.54,42.67c81.1,29.66,125.76,71.48,125.76,117.75a73.36,73.36,0,0,1-5.63,27.93c-7.67,102.8-50.74,195.21-116.48,263.92A406.05,406.05,0,0,1,793.32,813.11ZM939.65,971.78c-2.35,4.06-8.93,4.06-11.67.55-7.85-10.05-8.39-23.88-17.08-34.07-9.51-11.16-21.56-15.12-34.41-20.86-8.44-3.78-3.29-14.6,3.89-15.61,16.76-2.35,34.66,9.15,45.38,21.12S948.74,956,939.65,971.78Zm36.16-62.16c-14.2-17.29-23.3-34.84-44.52-44.94A81.42,81.42,0,0,0,903,857.12c-8.34-.68-16.77,1.63-24.64-1.5-5.53-2.21-5.84-8.53-2.13-12.46,15.93-16.87,53.57-4.53,70.75,5,20.33,11.3,42.55,32.67,41.51,57.77C988.17,912.31,979.5,914.13,975.81,909.62Zm18.36-89.89c-11.65-5.39-21.35-13.58-34.34-15.89-11.34-2-22.91.14-33.66,3.84-9.46,3.26-13.67-9.87-6.57-15,22.92-16.64,73.38-14.22,83.7,17.55C1005.05,815.61,1000.37,822.6,994.17,819.73ZM1009,249.37c6.25,6.65-1.69,17.94-9.85,13-13.06-8-25.47-12.55-41-10.42-11.62,1.59-12.66-15.69-1.58-17.86a61.42,61.42,0,0,1,31.55,2.23A52.45,52.45,0,0,1,1002,243a34.56,34.56,0,0,1,7,6.41C1014.46,255.16,1010.58,251.43,1009,249.37Z" transform="translate(-102.81)"/><path class="cls-1" d="M981.56,453.54c0-78.33-173.57-141.82-387.69-141.82s-387.7,63.49-387.7,141.82,173.58,141.81,387.7,141.81S981.56,531.86,981.56,453.54ZM694,370.2c33.77,2.25,36,33.77,36,33.77s-14.91,13.25-34.13,13.25A40.17,40.17,0,0,1,686,416c-23.74-6-63.36-11.52-50.56-34.55,6.24-11.23,13.16-14.16,23.85-14.16C667.88,367.3,678.91,369.2,694,370.2ZM809.05,483.49a25.47,25.47,0,0,1-4.78-.48c-27.69-5.38-30-14.8-24.49-31.49,3.71-11.22,11.36-15.24,21.68-15.24a71.21,71.21,0,0,1,16.85,2.49C836,443.2,833.47,483.49,809.05,483.49ZM707.47,507c-12.64,6-24.3,8.63-34.16,8.63-23.51,0-36.8-15-28.88-35.64,8.44-21.95,18.32-28.85,31.38-28.85,8.34,0,18,2.82,29.41,6.33C734.48,466.45,750.24,486.71,707.47,507Zm-150.83-6.75c8.68-13.65,15.55-19.05,22.38-19.05,5.07,0,10.13,3,15.89,7.79,13.51,11.26,9,24.76-2.25,40.52-2.76,3.86-7.27,5.56-12.29,5.56C564.92,535,544.74,518.91,556.64,500.22Zm-2.25-67.54c-8.34,8.34-19.46,12-30.85,12-25.53,0-52.45-18.36-52.45-43.51,0-13.5,3.94-16.32,12.1-16.32,5.83,0,13.82,1.44,24.05,1.44a101.17,101.17,0,0,0,13.38-.87,60.08,60.08,0,0,1,7.94-.54C558.36,384.87,579.24,407.82,554.39,432.68Zm-121.57,36a112.18,112.18,0,0,1,19.15-2c17,0,28.73,6.59,37.13,26.76,11.26,27-40.52,22.51-69.78,27a24.57,24.57,0,0,1-3.62.29C390.51,520.77,396.21,475.16,432.82,468.7ZM285.37,448.82c0-55,138.12-99.53,308.5-99.53,17.31,0,34.29.47,50.83,1.35-10.8,3.16-19.07,10.23-25.45,21.65a204.92,204.92,0,0,0-25.69-5,134.61,134.61,0,0,0-46.11,1.48c-3.25.7-9.71-2-13.27-2.29-8.61-.66-17.18.81-25.79.78-8.4,0-16.78-1-25.2-1-11.46,0-30.7,4.54-30.7,34.92,0,1.6.1,3.16.23,4.71a94.91,94.91,0,0,0-27.9.28c-36.15,5.34-45.54,58.93-45.54,58.93-39.21,2.38-49.72,20.08-51.84,33.94C300.71,484.29,285.37,467.13,285.37,448.82Zm586.22,43.39c-5.19-16.14-14.71-22.33-24.2-24,.24-1.2.45-2.43.61-3.68,2.6-21.1-8-39.54-25.17-43.84a105.1,105.1,0,0,0-14.36-2.62c-6.28-7.65-15.44-14.37-28.73-18.68a87.18,87.18,0,0,0-32.37-4.2c-2.87-12.51-11.16-28.69-28.68-37.45,108.19,15.47,183.68,50.41,183.68,91C902.37,464.38,891.3,479.09,871.59,492.21Z" transform="translate(-102.81)"/></svg>