<svg id="Layer_1" data-name="Layer 1" xmlns="http://www.w3.org/2000/svg" viewBox="0 0 994.37 1200"><defs><style>.cls-1{fill:#ec1729;}</style></defs><path class="cls-1" d="M853.88,453.48l-35.36-21.59c8-11.6,15.42-22.38,23.42-34l-39-14,15.8-38.09-41-5.54c2.64-14,5.12-27,7.7-40.63l-41.91,3.44V261.47l-40.14,12c-3.29-13.75-6.37-26.69-9.6-40.21L657.35,253l-17.6-37.34-31.58,26.84L583,209.73l-25.11,32.82-31.56-26.89c-6.19,13-11.89,25-17.72,37.32l-36.43-19.81c-3.26,13.84-6.31,26.77-9.5,40.28l-40.65-12v41.58l-41.4-3.35,7.49,40.69-40.87,5.52c5.5,13.26,10.61,25.56,15.82,38.13l-39,13.77L347.61,432l-35.4,21.52L342.3,482l-30,28.39,35.31,21.68c-8,11.67-15.39,22.45-23.26,33.91L363,580.06c-5.39,13-10.4,25.11-15.81,38.14l41.13,5.26L380.86,664l41.71-3.17v41.5l40.05-11.75c3.35,13.89,6.41,26.61,9.67,40.16L508.74,711c6,12.79,11.68,24.83,17.62,37.46l31.59-27,25,32.94,25.27-33,31.36,27.15c6.15-13,11.86-25,17.81-37.56l36.36,19.82,9.69-40.23,40.42,12V661L785.07,664c-2.47-14-4.69-26.7-7.12-40.53l40.72-5.35L802.83,579.8l38.87-13.73-23.38-34.13,35.6-21.38L823.74,482ZM624.33,654.41c-112.9,26.73-220.64-60.34-218.14-176.27,1.85-86.18,64.34-158.61,150.4-171,66.4-9.55,121.8,13,164.91,64.79,1,1.24,1.88,2.63,3.07,4.32l-152.46,138a169.62,169.62,0,0,0-59.2-55.74c-24.08-13.57-50.06-20.64-79.74-22.23L571.86,613.46c59.74-86.4,118.92-172,178.1-257.55.4.24.8.48,1.19.73-3,11.68-6.52,23.28-8.82,35.1-1,4.95-.8,11.08,1.29,15.52C790.86,507.79,732.59,628.78,624.33,654.41Z" transform="translate(-102.81)"/><path class="cls-1" d="M602.18,0C295,0,103,121.4,103,443.56c0,266.3-24,751.73,475.18,756.39,528.15,5,503.55-392,518.38-723.7C1111,154.08,875.77,0,602.18,0ZM565.36,794c-23.59,50.58-47.31,101.09-72.6,151.64C487,911.52,481.19,877.4,475.2,842.13c-31,18-60.89,35.39-90.73,52.73l-1.19-1,61.19-130.52,4.9,19,43.94-24,21.33,45.35,38-32.72c4.5,5.83,9,11.27,13,17.1C566.5,789.37,566.15,792.29,565.36,794Zm231,186.81-89.75-52.19c-6,35.17-11.75,69.25-17.53,103.32l-1.58.11c-7.32-15.63-14.69-31.24-22-46.9Q626.29,900.57,587,816c-2.11-4.52-2.33-7.74,1-11.85,8.57-10.7,16.64-21.81,25.32-33.31l38.1,32.81c7.15-15.23,14-29.76,21.26-45.31,14.13,8.8,29.74,12.81,37.64,30.66,27,61.11,55.84,121.43,84,182.06,1.25,2.69,2.3,5.47,3.45,8.21Zm80.79-403.46L832.45,593l18.14,43.41L804,642.62c3,15.58,5.78,30.32,8.81,46.24l-47.2-4V732.2l-46-13.71c-3.61,15-7.16,29.78-11,45.7-13.94-7.6-27.25-14.87-41.25-22.52l-20,42.65-35.82-30.84-28.42,37.58-28.64-37.54-35.68,30.76-20-42.54-41.36,22.47c-3.68-15.42-7.18-30.06-10.93-45.76l-45.71,13.7V685l-47.68,3.94c2.74-13.7,5-26.36,7.92-38.88,1.43-6.19-.29-8.24-6.56-8.8-12.8-1.14-25.52-3.08-39-4.78l18.11-43.37L289,577.47c9.19-13.24,17.75-25.57,26.9-38.77l-40.14-24.44C287.31,503.38,298.26,493.07,310,482l-34.26-32.38L316,425.3c-9.11-13.18-17.63-25.53-26.8-38.81l44.43-15.57L315.47,327.5l46.6-5.95c-2.86-15.54-5.61-30.48-8.53-46.3l47,3.81V231.79l45.9,13.71c3.71-15.46,7.27-30.27,11-45.78l41.18,22.52,20.13-42.53,35.67,30.66L583,173l28.71,37.43,35.53-30.76c6.83,14.41,13.34,28.13,20.24,42.66l41.25-22.64c3.65,15.47,7.13,30.24,10.81,45.85l45.35-13.6v47.16l47.8-3.85c-2.93,15.45-5.75,30.33-8.76,46.18l46.76,6.19c-6.22,14.73-12.07,28.58-18.26,43.26L877,386.55l-26.89,38.6,40.31,24.52-34.32,32.25,34.33,32.35-40.24,24.42Z" transform="translate(-102.81)"/></svg>