<?xml version="1.0" encoding="UTF-8"?>
<svg id="Layer_1" data-name="Layer 1" xmlns="http://www.w3.org/2000/svg" viewBox="0 0 54 34.18">
  <defs>
    <style>
      .cls-1 {
        fill: #e82426;
      }
    </style>
  </defs>
  <path class="cls-1" d="m54,28.27c-.33.41-.77.54-1.29.52-.75-.03-1.5,0-2.24,0-.62,3.62-2.64,5.52-5.75,5.38-2.24-.1-4.86-1.82-5.07-5.34h-18.98c-.09,1.76-.77,3.23-2.2,4.3-1.08.81-2.32,1.17-3.66,1.04-2.59-.25-4.79-2.29-4.9-5.38-.18,0-.36,0-.55,0-1.27,0-2.53,0-3.8,0-1.24,0-1.95-.73-1.96-1.97,0-.52,0-1.05,0-1.64-.85,0-1.65-.01-2.45,0-.5.01-.89-.14-1.14-.59v-.63c.34-.42.77-.52,1.29-.52,2.41.02,4.82,0,7.22,0,.12,0,.25,0,.37,0,.57.04.93.38.92.88,0,.48-.34.82-.9.84-.9.02-1.79,0-2.69,0q-.92,0-.92.92t.98.97c1.16,0,2.32,0,3.48,0,.29,0,.46-.06.6-.36.97-2.07,2.62-3.22,4.89-3.23,2.3,0,3.95,1.15,4.96,3.23.08.16.32.34.48.34,5.62.02,11.25.01,16.87.01.08,0,.17-.02.3-.04v-.59c0-1.85,0-3.69,0-5.54,0-.65.33-1.05.86-1.04.53,0,.84.38.84,1.05,0,1.88,0,3.76,0,5.64,0,.17.1.33.15.5.14-.13.32-.23.4-.39,1-2.03,2.63-3.17,4.88-3.18,2.27,0,3.94,1.12,4.92,3.19.14.3.3.42.63.41.56-.02,1.12,0,1.72,0v-3.69c-.25,0-.5,0-.75,0-1.75-.04-2.8-1.1-2.82-2.85,0-.51-.01-1.02,0-1.53.02-.63.32-.92.96-.93.8,0,1.61,0,2.42,0-.18-1-1.22-1.88-2.34-1.89-3.34-.03-6.68,0-10.02,0-.03,0-.06.03-.16.07,0,.28.02.59,0,.9-.03.48-.35.79-.8.81-.47.02-.83-.3-.88-.79-.02-.16,0-.32,0-.47,0-4.76,0-9.53,0-14.29,0-.21,0-.41,0-.65H5.34c-.01.21-.04.43-.04.65,0,4.76,0,9.53,0,14.29,0,.89-.24,1.26-.83,1.27-.61.01-.88-.38-.88-1.28,0-4.87,0-9.74,0-14.61C3.59.67,4.27,0,5.63,0c10.63,0,21.27,0,31.9,0,1.38,0,2.03.65,2.04,2.02,0,.5,0,1.01,0,1.57.37,0,.68,0,1,0,1.74,0,3.48,0,5.22,0,2.15,0,3.65,1.48,3.7,3.62,0,.18,0,.35,0,.53.04.54-.1.98-.65,1.18.43,1.75.85,3.47,1.3,5.18.04.17.21.39.36.43,1.84.48,2.97,1.64,3.41,3.48.01.05.06.09.09.13v10.13Zm-5.55-13.85c-.43-1.72-.86-3.36-1.24-5.01-.09-.41-.28-.48-.64-.47-2.14.01-4.28,0-6.42,0-.17,0-.34.02-.53.02v5.45h8.84Zm-29.53,14.42c.01-2.03-1.58-3.65-3.62-3.66-2.02,0-3.66,1.61-3.68,3.62-.02,1.98,1.65,3.66,3.64,3.68,2,.02,3.65-1.62,3.66-3.64Zm26.12-3.66c-2.03,0-3.65,1.62-3.65,3.64,0,2,1.66,3.66,3.65,3.66,2,0,3.65-1.66,3.65-3.66,0-2.01-1.64-3.64-3.66-3.64Zm2.72-18c-.02-1.09-.75-1.84-1.85-1.85-2-.02-4,0-6,0-.1,0-.2.03-.31.05v1.8h8.15Zm4.53,12.59h-1.82c-.28,1.56.3,2.13,1.82,1.8v-1.8Z"/>
  <path class="cls-1" d="m29.64,12.59c0,4.46-3.64,8.07-8.09,8.06-4.43-.01-8.06-3.68-8.04-8.13.01-4.42,3.64-8.01,8.08-8.01,4.47,0,8.06,3.6,8.05,8.08Zm-8.06,6.33c3.51,0,6.37-2.86,6.36-6.36,0-3.5-2.88-6.35-6.39-6.35-3.47,0-6.32,2.86-6.33,6.35-.01,3.5,2.85,6.37,6.36,6.36Z"/>
  <path class="cls-1" d="m28.85,25.16c-1.98,0-3.97,0-5.95,0-.19,0-.39,0-.58-.04-.44-.09-.67-.39-.68-.82,0-.41.22-.7.62-.81.18-.05.38-.06.57-.06,3.98,0,7.97,0,11.95,0,.19,0,.39,0,.57.06.42.13.64.43.6.87-.03.42-.28.67-.69.75-.19.04-.38.03-.58.03-1.95,0-3.9,0-5.84,0Z"/>
  <path class="cls-1" d="m8.01,21.54c-1.74,0-3.48,0-5.22,0-.65,0-1.03-.35-1-.89.03-.5.41-.81,1.04-.81,2.95,0,5.9,0,8.85,0,.56,0,1.12,0,1.69,0,.56.01.95.36.95.85,0,.49-.36.84-.94.85-1.79,0-3.58,0-5.38,0Z"/>
  <path class="cls-1" d="m15.27,30.57c-.96,0-1.78-.83-1.76-1.79.02-.95.81-1.73,1.76-1.73.97,0,1.78.82,1.76,1.79-.02.95-.82,1.74-1.76,1.74Z"/>
  <path class="cls-1" d="m45.02,30.57c-.94,0-1.74-.81-1.75-1.75,0-.96.82-1.78,1.78-1.77.95.01,1.74.8,1.75,1.75,0,.95-.83,1.78-1.78,1.77Z"/>
  <path class="cls-1" d="m22.45,10.72c-.36,1.09.28,1.98,1.24,2.76.42.34.78.76,1.16,1.15.37.4.39.88.07,1.23-.35.37-.85.38-1.26-.02-.88-.86-1.76-1.72-2.6-2.62-.17-.18-.29-.49-.3-.75-.03-1.12-.02-2.25-.01-3.37,0-.63.34-.98.86-.98.51,0,.84.38.85,1,0,.46,0,.91,0,1.6Z"/>
</svg>