<?xml version="1.0" encoding="UTF-8"?>
<svg id="Layer_1" data-name="Layer 1" xmlns="http://www.w3.org/2000/svg" viewBox="0 0 41.36 51.94">
  <defs>
    <style>
      .cls-1 {
        fill: #e82426;
      }
    </style>
  </defs>
  <path class="cls-1" d="m6.42,34.22c-.34-.15-.65-.3-.96-.44-2.62-1.12-3.86-3.27-3.52-6.1.08-.69.28-1.38.25-2.06-.03-.84-.13-1.72-.4-2.52-.29-.87-.82-1.66-1.21-2.49-1.01-2.14-.73-4.63,1.07-6.13,2.18-1.82,3.41-3.98,3.92-6.77.44-2.38,2.44-3.83,4.85-4,.87-.06,1.75-.02,2.6-.18.77-.15,1.56-.41,2.24-.8.8-.45,1.49-1.1,2.25-1.63,1.97-1.39,4.48-1.55,6.3.01,2.2,1.89,4.62,2.59,7.45,2.66,2.22.06,3.69,1.49,4.49,3.55.09.24.17.5.2.75.28,2.52,1.48,4.43,3.44,6.06,2.15,1.78,2.49,4.26,1.26,6.75-.03.05-.04.11-.08.16-1.3,1.98-1.67,4.06-1.21,6.43.55,2.9-.69,5.06-3.44,6.35,1.26,2.93,2.5,5.82,3.74,8.7.34.78.91,1.58.24,2.43-.68.86-1.57.47-2.41.3-1.3-.26-2.61-.51-3.9-.81-.51-.12-.79-.01-1.06.44-.8,1.34-1.65,2.65-2.46,3.99-.35.58-.79,1.05-1.5.99-.71-.05-1.08-.55-1.35-1.19-1.07-2.53-2.18-5.04-3.24-7.57-.21-.51-.52-.78-1.04-.9-1.08-.26-2.15-.82-3.29-.33-.35.15-.74.44-.9.77-1.59,3.34-3.15,6.69-4.7,10.05-.29.64-.64,1.2-1.41,1.23-.77.04-1.18-.47-1.53-1.09-.75-1.33-1.54-2.65-2.29-3.98-.24-.43-.47-.6-1.02-.48-1.53.32-3.08.51-4.61.82-.69.14-1.29.1-1.73-.45-.48-.6-.29-1.24,0-1.87,1.51-3.22,3-6.44,4.5-9.66.15-.31.28-.63.44-.99Zm-1.75-5.56c.03,1.02.5,1.89,1.55,2.38.76.35,1.53.69,2.3,1,1.42.57,2.52,1.5,3.33,2.79.45.71.9,1.42,1.39,2.1.67.93,1.59,1.33,2.72,1.05.76-.19,1.5-.41,2.24-.65,1.65-.55,3.28-.56,4.94,0,.76.26,1.54.48,2.33.67,1.03.24,1.89-.12,2.54-.93.34-.43.65-.89.92-1.37,1.09-2,2.71-3.35,4.86-4.08.33-.11.64-.27.96-.41,1.58-.7,2.2-1.68,1.85-3.38-.56-2.73-.21-5.23,1.23-7.66,1.2-2.03,1.02-2.91-.82-4.43-2.05-1.69-3.22-3.77-3.67-6.37-.4-2.32-1.06-2.86-3.45-2.89-2.59-.03-4.9-.68-6.83-2.48-.21-.2-.45-.36-.69-.52-1.19-.83-2.18-.84-3.36,0-.75.54-1.5,1.09-2.24,1.64-1.06.78-2.24,1.16-3.55,1.21-.87.03-1.73.09-2.6.17-1.14.1-1.95.67-2.32,1.78-.14.44-.26.89-.34,1.34-.39,2.2-1.3,4.06-3.02,5.59-2.63,2.34-2.66,2.64-1.01,5.75.99,1.87,1.36,3.78.95,5.85-.11.57-.13,1.15-.21,1.84Zm7.77,18.84c1.04-2.24,2.03-4.37,3.06-6.58-2.43-.1-4.03-1.32-5.17-3.28-.4-.69-.88-1.33-1.41-2.1-1.34,2.89-2.62,5.63-3.95,8.48,1.2-.2,2.28-.37,3.35-.57,1.35-.25,1.69-.11,2.39,1.1.55.95,1.1,1.89,1.72,2.96Zm14.46-6.68c.67,1.56,1.31,3.03,1.99,4.61.63-1.02,1.2-1.92,1.76-2.83.8-1.29,1.09-1.41,2.56-1.09,1.03.22,2.05.42,3.24.66-1.09-2.52-2.1-4.86-3.15-7.29-.35.29-.63.45-.82.7-.58.79-1.16,1.59-1.68,2.42-.89,1.45-2.11,2.43-3.91,2.82Z"/>
  <path class="cls-1" d="m7.94,20.4c.05-7.13,5.77-12.72,12.97-12.67,6.86.04,12.59,5.88,12.55,12.79-.04,7.09-5.86,12.8-12.97,12.74-6.95-.06-12.6-5.85-12.55-12.85Zm22.67.15c.03-5.53-4.41-10.03-9.92-10.04-5.41-.01-9.92,4.45-9.95,9.85-.03,5.55,4.36,10.02,9.88,10.08,5.44.06,9.95-4.41,9.98-9.89Z"/>
  <path class="cls-1" d="m18.14,22.5c1.76-1.59,3.47-3.14,5.18-4.69.79-.72,1.58-1.45,2.37-2.16.73-.66,1.6-.67,2.15-.06.56.62.48,1.45-.27,2.13-2.77,2.54-5.55,5.06-8.35,7.58-.82.74-1.49.7-2.28-.07-1.09-1.07-2.18-2.16-3.25-3.25-.68-.7-.72-1.57-.12-2.15.6-.58,1.38-.54,2.07.15.83.81,1.62,1.65,2.48,2.52Z"/>
</svg>